# xmcd CD database file
#
# Track frame offsets:
#	150
#	21315
#	35692
#	50707
#	68447
#	83085
#	100865
#	118210
#	129757
#	147305
#	164015
#	182900
#	200007
#	217082
#	236037
#	246912
#	266505
#	284520
#	301587
#	320650
#	327967
#	343745
#
# Disc length: 4789 seconds
#
# Revision: 0
# Processed by: cddbd v1.5.1PL0 Copyright (c) Steve Scherf et al.
# Submitted via: CDex 1.51
#
DISCID=5612b316
DTITLE=Everclear - Ten Years Gone: The Best of Everclear, 1994-2004
DYEAR=2004
DGENRE=Alt Rock
TTITLE0=Wonderful
TTITLE1=Santa Monica
TTITLE2=Everything To Everyone
TTITLE3=AM Radio
TTITLE4=Volvo Driving Soccer Mom
TTITLE5=I Will Buy You A New Life
TTITLE6=Learning How To Smile
TTITLE7=Strawberry
TTITLE8=Local God (from Romeo and Juliet)
TTITLE9=Summerland
TTITLE10=Fire Maple Song
TTITLE11=When It All Goes Wrong Again
TTITLE12=Heroin Girl
TTITLE13=The Boys Are Back In Town (from Detroit Rock City)
TTITLE14=Father Of Mine (Radio Mix)
TTITLE15=Brown Eyed Girl
TTITLE16=Sex With A Movie Star (Good Witch Gone Bad)
TTITLE17=The New Disease
TTITLE18=New York Times
TTITLE19=Song From An American Movie Pt.1
TTITLE20=Rock Star
TTITLE21=I'm On Your Time
EXTD=YEAR: 2004
EXTT0=
EXTT1=
EXTT2=
EXTT3=
EXTT4=
EXTT5=
EXTT6=
EXTT7=
EXTT8=
EXTT9=
EXTT10=
EXTT11=
EXTT12=
EXTT13=
EXTT14=
EXTT15=
EXTT16=
EXTT17=
EXTT18=
EXTT19=
EXTT20=
EXTT21=
PLAYORDER=
